HIERARCHY
ROOT Hips
{
	OFFSET 0.000000 0.000000 0.000000
	CHANNELS 6 Xposition Yposition Zposition Zrotation Yrotation Xrotation 
	JOINT Spine1
	{
		OFFSET -0.013727 5.003762 -0.053727
		CHANNELS 3 Zrotation Yrotation Xrotation
		JOINT Spine2
		{
			OFFSET -0.000000 7.125302 -0.029825
			CHANNELS 3 Zrotation Yrotation Xrotation
			JOINT Chest
			{
				OFFSET -0.000001 7.550064 -0.815971
				CHANNELS 3 Zrotation Yrotation Xrotation
				JOINT Neck1
				{
					OFFSET -0.181676 26.311296 -0.553348
					CHANNELS 3 Zrotation Yrotation Xrotation
					JOINT Neck2
					{
						OFFSET -0.000003 7.709400 2.302586
						CHANNELS 3 Zrotation Yrotation Xrotation
						JOINT Head
						{
							OFFSET -0.000005 6.128913 1.953709
							CHANNELS 3 Zrotation Yrotation Xrotation
							JOINT HeadEnd
							{
								OFFSET 0.003598 16.065401 -1.835379
								CHANNELS 3 Zrotation Yrotation Xrotation
								End Site
								{
									OFFSET 0.000000 0.000000 0.000000
								}
							}
							JOINT Jaw
							{
								OFFSET 0.002637 0.475592 3.094940
								CHANNELS 3 Zrotation Yrotation Xrotation
								End Site
								{
									OFFSET 0.000000 0.000000 0.000000
								}
							}
							JOINT LeftEye
							{
								OFFSET 3.206381 5.380207 7.586883
								CHANNELS 3 Zrotation Yrotation Xrotation
								End Site
								{
									OFFSET 0.000000 0.000000 0.000000
								}
							}
							JOINT RightEye
							{
								OFFSET -3.222440 5.361867 7.558233
								CHANNELS 3 Zrotation Yrotation Xrotation
								End Site
								{
									OFFSET 0.000000 0.000000 0.000000
								}
							}
						}
					}
				}
				JOINT LeftShoulder
				{
					OFFSET 1.621652 23.237164 5.113413
					CHANNELS 3 Zrotation Yrotation Xrotation
					JOINT LeftArm
					{
						OFFSET 14.919845 -0.000001 -5.502326
						CHANNELS 3 Zrotation Yrotation Xrotation
						JOINT LeftForeArm
						{
							OFFSET 28.739309 0.000002 -0.002588
							CHANNELS 3 Zrotation Yrotation Xrotation
							JOINT LeftHand
							{
								OFFSET 27.093979 -0.000003 0.002609
								CHANNELS 3 Zrotation Yrotation Xrotation
								JOINT LeftHandThumb1
								{
									OFFSET 2.276480 -1.392046 3.191413
									CHANNELS 3 Zrotation Yrotation Xrotation
									JOINT LeftHandThumb2
									{
										OFFSET 4.012842 -1.828126 1.641656
										CHANNELS 3 Zrotation Yrotation Xrotation
										JOINT LeftHandThumb3
										{
											OFFSET 2.798516 0.000000 -0.000003
											CHANNELS 3 Zrotation Yrotation Xrotation
											JOINT LeftHandThumbEnd
											{
												OFFSET 3.180791 -0.000002 0.000003
												CHANNELS 3 Zrotation Yrotation Xrotation
												End Site
												{
													OFFSET 0.000000 0.000000 0.000000
												}
											}
										}
									}
								}
								JOINT LeftHandIndex1
								{
									OFFSET 3.247554 -0.531998 2.296169
									CHANNELS 3 Zrotation Yrotation Xrotation
									JOINT LeftHandIndex2
									{
										OFFSET 6.364579 0.012062 0.178600
										CHANNELS 3 Zrotation Yrotation Xrotation
										JOINT LeftHandIndex3
										{
											OFFSET 3.662366 0.000001 0.000000
											CHANNELS 3 Zrotation Yrotation Xrotation
											JOINT LeftHandIndex4
											{
												OFFSET 2.329243 0.000003 0.000004
												CHANNELS 3 Zrotation Yrotation Xrotation
												JOINT LeftHandIndexEnd
												{
													OFFSET 2.759619 -0.180539 -0.113024
													CHANNELS 3 Zrotation Yrotation Xrotation
													End Site
													{
														OFFSET 0.000000 0.000000 0.000000
													}
												}
											}
										}
									}
								}
								JOINT LeftHandMiddle1
								{
									OFFSET 3.163499 0.240981 1.000332
									CHANNELS 3 Zrotation Yrotation Xrotation
									JOINT LeftHandMiddle2
									{
										OFFSET 6.190778 -0.259276 -1.002549
										CHANNELS 3 Zrotation Yrotation Xrotation
										JOINT LeftHandMiddle3
										{
											OFFSET 4.356523 -0.000006 0.000000
											CHANNELS 3 Zrotation Yrotation Xrotation
											JOINT LeftHandMiddle4
											{
												OFFSET 2.996875 -0.000007 0.000001
												CHANNELS 3 Zrotation Yrotation Xrotation
												JOINT LeftHandMiddleEnd
												{
													OFFSET 2.304294 -0.294572 -0.031740
													CHANNELS 3 Zrotation Yrotation Xrotation
													End Site
													{
														OFFSET 0.000000 0.000000 0.000000
													}
												}
											}
										}
									}
								}
								JOINT LeftHandRing1
								{
									OFFSET 2.882642 -0.053650 -0.322543
									CHANNELS 3 Zrotation Yrotation Xrotation
									JOINT LeftHandRing2
									{
										OFFSET 5.854543 -0.486203 -1.373841
										CHANNELS 3 Zrotation Yrotation Xrotation
										JOINT LeftHandRing3
										{
											OFFSET 4.350580 0.000000 0.000004
											CHANNELS 3 Zrotation Yrotation Xrotation
											JOINT LeftHandRing4
											{
												OFFSET 2.651324 0.000008 0.000002
												CHANNELS 3 Zrotation Yrotation Xrotation
												JOINT LeftHandRingEnd
												{
													OFFSET 1.936110 0.077684 -0.000069
													CHANNELS 3 Zrotation Yrotation Xrotation
													End Site
													{
														OFFSET 0.000000 0.000000 0.000000
													}
												}
											}
										}
									}
								}
								JOINT LeftHandPinky1
								{
									OFFSET 2.865499 -0.310004 -1.600378
									CHANNELS 3 Zrotation Yrotation Xrotation
									JOINT LeftHandPinky2
									{
										OFFSET 5.087853 -1.331142 -1.771231
										CHANNELS 3 Zrotation Yrotation Xrotation
										JOINT LeftHandPinky3
										{
											OFFSET 3.070975 0.000003 0.000001
											CHANNELS 3 Zrotation Yrotation Xrotation
											JOINT LeftHandPinky4
											{
												OFFSET 1.549668 0.000001 0.000001
												CHANNELS 3 Zrotation Yrotation Xrotation
												JOINT LeftHandPinkyEnd
												{
													OFFSET 1.944894 -0.157802 0.057219
													CHANNELS 3 Zrotation Yrotation Xrotation
													End Site
													{
														OFFSET 0.000000 0.000000 0.000000
													}
												}
											}
										}
									}
								}
							}
						}
					}
				}
				JOINT RightShoulder
				{
					OFFSET -1.380118 23.180309 5.214158
					CHANNELS 3 Zrotation Yrotation Xrotation
					JOINT RightArm
					{
						OFFSET -15.037197 0.000012 -5.545604
						CHANNELS 3 Zrotation Yrotation Xrotation
						JOINT RightForeArm
						{
							OFFSET -28.736639 0.000003 -0.002597
							CHANNELS 3 Zrotation Yrotation Xrotation
							JOINT RightHand
							{
								OFFSET -27.133617 0.000000 0.002613
								CHANNELS 3 Zrotation Yrotation Xrotation
								JOINT RightHandThumb1
								{
									OFFSET -2.274037 -1.383990 3.163127
									CHANNELS 3 Zrotation Yrotation Xrotation
									JOINT RightHandThumb2
									{
										OFFSET -4.011428 -1.827468 1.640914
										CHANNELS 3 Zrotation Yrotation Xrotation
										JOINT RightHandThumb3
										{
											OFFSET -2.794935 -0.000003 -0.000003
											CHANNELS 3 Zrotation Yrotation Xrotation
											JOINT RightHandThumbEnd
											{
												OFFSET -3.183855 0.000003 -0.000001
												CHANNELS 3 Zrotation Yrotation Xrotation
												End Site
												{
													OFFSET 0.000000 0.000000 0.000000
												}
											}
										}
									}
								}
								JOINT RightHandIndex1
								{
									OFFSET -3.253270 -0.520060 2.282866
									CHANNELS 3 Zrotation Yrotation Xrotation
									JOINT RightHandIndex2
									{
										OFFSET -6.341918 0.012473 0.178265
										CHANNELS 3 Zrotation Yrotation Xrotation
										JOINT RightHandIndex3
										{
											OFFSET -3.654875 -0.000009 -0.000001
											CHANNELS 3 Zrotation Yrotation Xrotation
											JOINT RightHandIndex4
											{
												OFFSET -2.327586 -0.000000 -0.000000
												CHANNELS 3 Zrotation Yrotation Xrotation
												JOINT RightHandIndexEnd
												{
													OFFSET -2.761789 -0.180657 -0.113078
													CHANNELS 3 Zrotation Yrotation Xrotation
													End Site
													{
														OFFSET 0.000000 0.000000 0.000000
													}
												}
											}
										}
									}
								}
								JOINT RightHandMiddle1
								{
									OFFSET -3.168106 0.246593 1.001030
									CHANNELS 3 Zrotation Yrotation Xrotation
									JOINT RightHandMiddle2
									{
										OFFSET -6.180830 -0.258836 -1.000896
										CHANNELS 3 Zrotation Yrotation Xrotation
										JOINT RightHandMiddle3
										{
											OFFSET -4.348905 -0.000000 -0.000001
											CHANNELS 3 Zrotation Yrotation Xrotation
											JOINT RightHandMiddle4
											{
												OFFSET -3.000242 -0.000003 -0.000003
												CHANNELS 3 Zrotation Yrotation Xrotation
												JOINT RightHandMiddleEnd
												{
													OFFSET -2.302518 -0.294371 -0.031706
													CHANNELS 3 Zrotation Yrotation Xrotation
													End Site
													{
														OFFSET 0.000000 0.000000 0.000000
													}
												}
											}
										}
									}
								}
								JOINT RightHandRing1
								{
									OFFSET -2.885694 -0.067952 -0.308858
									CHANNELS 3 Zrotation Yrotation Xrotation
									JOINT RightHandRing2
									{
										OFFSET -5.854196 -0.486132 -1.373732
										CHANNELS 3 Zrotation Yrotation Xrotation
										JOINT RightHandRing3
										{
											OFFSET -4.338814 -0.000003 -0.000000
											CHANNELS 3 Zrotation Yrotation Xrotation
											JOINT RightHandRing4
											{
												OFFSET -2.654905 -0.000004 0.000004
												CHANNELS 3 Zrotation Yrotation Xrotation
												JOINT RightHandRingEnd
												{
													OFFSET -1.933569 0.077523 -0.000052
													CHANNELS 3 Zrotation Yrotation Xrotation
													End Site
													{
														OFFSET 0.000000 0.000000 0.000000
													}
												}
											}
										}
									}
								}
								JOINT RightHandPinky1
								{
									OFFSET -2.866429 -0.342798 -1.584145
									CHANNELS 3 Zrotation Yrotation Xrotation
									JOINT RightHandPinky2
									{
										OFFSET -5.091370 -1.332054 -1.772385
										CHANNELS 3 Zrotation Yrotation Xrotation
										JOINT RightHandPinky3
										{
											OFFSET -3.062666 -0.000006 -0.000000
											CHANNELS 3 Zrotation Yrotation Xrotation
											JOINT RightHandPinky4
											{
												OFFSET -1.546526 0.000005 -0.000003
												CHANNELS 3 Zrotation Yrotation Xrotation
												JOINT RightHandPinkyEnd
												{
													OFFSET -1.945122 -0.157721 0.057211
													CHANNELS 3 Zrotation Yrotation Xrotation
													End Site
													{
														OFFSET 0.000000 0.000000 0.000000
													}
												}
											}
										}
									}
								}
							}
						}
					}
				}
			}
		}
	}
	JOINT LeftLeg
	{
		OFFSET 10.043214 -8.434526 2.595655
		CHANNELS 3 Zrotation Yrotation Xrotation
		JOINT LeftShin
		{
			OFFSET -0.000001 -43.221752 -0.802913
			CHANNELS 3 Zrotation Yrotation Xrotation
			JOINT LeftFoot
			{
				OFFSET 0.000001 -42.155094 -3.481523
				CHANNELS 3 Zrotation Yrotation Xrotation
				JOINT LeftToeBase
				{
					OFFSET -0.000000 -5.059475 13.231529
					CHANNELS 3 Zrotation Yrotation Xrotation
					JOINT LeftToeEnd
					{
						OFFSET -0.009607 -1.647616 6.513017
						CHANNELS 3 Zrotation Yrotation Xrotation
						End Site
						{
							OFFSET 0.000000 0.000000 0.000000
						}
					}
				}
			}
		}
	}
	JOINT RightLeg
	{
		OFFSET -10.047277 -8.295259 2.620317
		CHANNELS 3 Zrotation Yrotation Xrotation
		JOINT RightShin
		{
			OFFSET 0.000001 -43.362209 -0.805556
			CHANNELS 3 Zrotation Yrotation Xrotation
			JOINT RightFoot
			{
				OFFSET 0.000002 -42.117393 -3.478398
				CHANNELS 3 Zrotation Yrotation Xrotation
				JOINT RightToeBase
				{
					OFFSET -0.000001 -5.079609 13.284196
					CHANNELS 3 Zrotation Yrotation Xrotation
					JOINT RightToeEnd
					{
						OFFSET 0.009532 -1.634383 6.460591
						CHANNELS 3 Zrotation Yrotation Xrotation
						End Site
						{
							OFFSET 0.000000 0.000000 0.000000
						}
					}
				}
			}
		}
	}
}
MOTION
Frames: 5
Frame Time: 0.033333
1.320782 99.804001 5.927193 0.347676 0.327343 -2.040696 0.142287 0.029311 -1.850979 -0.188605 -0.143435 -5.359807 1.854021 -1.777330 7.182964 -2.636445 4.120969 5.550214 0.283219 2.972608 -3.554577 1.368711 2.315148 -4.607804 0.000077 -0.000022 0.000006 0.000768 0.098977 0.005927 0.736514 -3.646512 -10.605145 -0.741027 3.847805 -10.610147 -16.977743 -3.551410 11.763247 -59.490002 -9.509771 23.315578 0.006347 -21.278391 -0.036051 0.167248 1.397665 -6.522694 -5.882101 9.861279 0.702589 -10.936859 -0.360574 7.156198 0.000000 8.774813 0.000000 -15.912023 18.262491 6.147075 -1.844032 2.498503 -2.507274 -10.163589 4.678940 4.621106 -20.975996 -0.000003 0.000000 -21.226254 2.451694 -3.593995 0.000002 -0.000005 0.000001 -1.362680 2.240796 -0.746323 -21.334887 0.584911 3.008320 -13.821195 -0.000002 0.000001 -23.887129 -0.249075 -0.839484 -60.190601 2.758800 -1.266850 -0.294024 1.679686 0.833255 -14.218192 0.093216 1.300581 -34.211998 -0.287562 0.967167 -20.033176 0.964536 1.212840 0.000000 0.000000 -0.000001 -3.440385 0.788233 0.501655 -15.928164 -3.167305 2.999703 -6.338817 -0.000001 0.000001 -18.123415 3.648176 -4.905663 -0.000005 0.000000 -0.000002 13.688483 12.276950 12.227132 62.782379 6.808130 14.765869 0.335750 25.031124 0.149362 0.195110 1.299656 5.203403 2.243540 -5.255033 -3.180156 14.282877 -0.826594 6.952495 -0.000002 -12.690591 -0.000001 16.016356 -17.911083 2.602078 1.665665 -1.955920 -2.878297 4.727795 -4.170583 4.993920 11.020513 0.000002 -0.000001 12.109034 -3.735709 -2.866782 -0.000001 0.000000 -0.000000 1.291985 -1.928548 -1.498086 14.800113 0.567469 3.865605 14.242554 -1.341735 -6.660647 19.631939 0.143926 -0.648242 49.512802 -0.917947 -6.594091 0.353028 -1.511149 -0.031941 20.222771 3.684308 2.316628 18.787249 0.000006 -0.000001 10.751610 -0.479867 1.397903 0.000002 0.000000 -0.000003 3.273804 0.305948 -0.580109 21.486794 11.830362 2.266132 8.162916 0.000001 -0.000001 18.399055 -3.798977 -4.940567 0.000003 0.000001 -0.000001 3.396678 6.491018 0.595115 0.006729 -0.253436 8.803734 -6.636084 0.675075 -7.124790 1.644346 -1.979764 -0.193635 0.000000 -0.000000 0.000002 -4.976420 -6.370212 0.448911 0.004637 0.156414 9.287398 6.888176 -0.406739 -7.247375 -1.414684 0.931984 0.535836 -0.000000 -0.000000 -0.000001 
1.349348 99.824463 6.093040 0.383551 0.377032 -2.097249 0.108968 0.021585 -1.841375 -0.174284 -0.159937 -5.389419 1.869389 -1.766822 7.217057 -2.624965 4.053172 5.586269 0.249214 3.051404 -3.569959 1.354552 2.260906 -4.465371 0.000077 -0.000023 0.000006 0.008147 0.117594 0.003309 0.735424 -3.624199 -10.618669 -0.726080 3.869150 -10.626010 -16.982204 -3.596556 11.794383 -59.349068 -9.446809 23.395214 -0.025360 -21.245487 0.000297 0.073583 1.355202 -6.290351 -5.882100 9.861277 0.702590 -10.936859 -0.360575 7.156196 0.000001 8.774813 -0.000001 -15.949307 18.239305 6.175590 -1.844030 2.498502 -2.507277 -10.163589 4.678940 4.621104 -20.975992 -0.000004 0.000002 -21.226255 2.451692 -3.593995 0.000001 -0.000005 -0.000000 -1.362681 2.240796 -0.746322 -21.334887 0.584908 3.008322 -13.821194 -0.000004 0.000002 -23.887131 -0.249080 -0.839482 -60.274143 2.752030 -1.232723 -0.294024 1.679687 0.833255 -14.218194 0.093215 1.300581 -34.211998 -0.287563 0.967169 -20.033176 0.964536 1.212841 0.000000 -0.000001 -0.000000 -3.440385 0.788233 0.501654 -15.928167 -3.167307 2.999703 -6.338817 -0.000002 0.000000 -18.123413 3.648175 -4.905663 -0.000005 0.000000 -0.000002 13.702330 12.213659 12.287685 62.716370 6.756293 14.731573 0.230448 25.220539 0.122298 0.183965 1.237739 4.859275 2.243539 -5.255033 -3.180155 14.282875 -0.826594 6.952495 -0.000002 -12.690590 -0.000002 16.026909 -17.908382 2.573281 1.665664 -1.955920 -2.878297 4.727795 -4.170585 4.993919 11.020510 0.000001 0.000000 12.109030 -3.735710 -2.866780 -0.000001 0.000000 -0.000001 1.291984 -1.928548 -1.498087 14.800109 0.567467 3.865602 14.242553 -1.341736 -6.660651 19.631937 0.143925 -0.648244 49.555477 -0.869162 -6.612811 0.353029 -1.511149 -0.031940 20.222765 3.684304 2.316629 18.787245 0.000004 -0.000002 10.751610 -0.479867 1.397904 0.000001 0.000002 -0.000003 3.273804 0.305946 -0.580111 21.486788 11.830360 2.266130 8.162916 0.000001 -0.000001 18.399052 -3.798981 -4.940567 0.000002 -0.000000 -0.000001 3.347739 6.400291 1.108979 -0.001918 -0.278698 8.105486 -6.555408 0.768751 -6.940636 1.640511 -1.985620 -0.232298 0.000000 0.000000 0.000002 -5.054836 -6.384198 0.906230 -0.008344 0.139195 8.729933 6.995772 -0.412245 -7.115077 -1.412563 0.927901 0.478656 -0.000000 -0.000000 -0.000001 
1.364004 99.831093 6.139120 0.403456 0.443809 -2.145903 0.088996 0.019351 -1.841384 -0.176853 -0.178933 -5.413492 1.890689 -1.775237 7.267307 -2.619242 4.027498 5.682071 0.219527 3.078131 -3.584143 1.360566 2.260987 -4.367701 0.000077 -0.000023 0.000006 0.009988 0.112502 0.003175 0.726880 -3.634141 -10.613411 -0.713841 3.861144 -10.634120 -16.984230 -3.640413 11.775406 -59.182362 -9.374292 23.562635 -0.034483 -21.195719 -0.028920 -0.041401 1.365227 -6.149716 -5.882099 9.861277 0.702592 -10.936858 -0.360576 7.156191 0.000002 8.774813 0.000001 -15.967580 18.225574 6.209516 -1.844031 2.498502 -2.507276 -10.163589 4.678938 4.621103 -20.975994 -0.000006 0.000001 -21.226255 2.451690 -3.593993 0.000001 -0.000005 -0.000000 -1.362680 2.240795 -0.746322 -21.334894 0.584907 3.008318 -13.821197 -0.000004 0.000001 -23.887131 -0.249081 -0.839480 -60.348297 2.729580 -1.167235 -0.294024 1.679687 0.833256 -14.218194 0.093212 1.300579 -34.212006 -0.287568 0.967171 -20.033178 0.964535 1.212841 0.000001 0.000001 0.000000 -3.440385 0.788232 0.501654 -15.928167 -3.167306 2.999703 -6.338817 -0.000002 -0.000001 -18.123415 3.648174 -4.905660 -0.000004 0.000000 -0.000000 13.753913 12.166701 12.306909 62.643936 6.698655 14.736850 0.116130 25.330050 0.108774 0.205864 1.181151 4.536829 2.243539 -5.255031 -3.180153 14.282875 -0.826591 6.952497 -0.000004 -12.690593 0.000001 16.025349 -17.904634 2.554510 1.665664 -1.955918 -2.878298 4.727794 -4.170583 4.993920 11.020510 0.000004 -0.000001 12.109033 -3.735709 -2.866776 0.000000 0.000000 -0.000001 1.291984 -1.928548 -1.498090 14.800114 0.567470 3.865604 14.242553 -1.341734 -6.660647 19.631939 0.143926 -0.648241 49.532520 -0.856846 -6.630749 0.353029 -1.511148 -0.031940 20.222769 3.684308 2.316628 18.787245 0.000007 -0.000001 10.751611 -0.479867 1.397906 0.000003 0.000003 -0.000003 3.273803 0.305948 -0.580110 21.486792 11.830368 2.266130 8.162916 0.000003 -0.000002 18.399052 -3.798976 -4.940566 0.000003 -0.000000 0.000001 3.318126 6.329476 1.313391 -0.000971 -0.281664 7.842476 -6.544568 0.787045 -6.856287 1.638837 -1.992636 -0.205109 -0.000000 0.000000 0.000002 -5.095243 -6.393196 1.107832 -0.016485 0.112851 8.517585 7.026811 -0.391352 -7.062680 -1.409077 0.917189 0.471355 -0.000000 -0.000000 -0.000001 
1.380152 99.824821 6.152401 0.421668 0.508424 -2.202079 0.075548 0.014533 -1.834646 -0.185749 -0.200228 -5.432562 1.909646 -1.790225 7.318295 -2.596374 4.028856 5.789746 0.189230 3.074165 -3.600255 1.345612 2.248501 -4.282845 0.000077 -0.000023 0.000006 0.010953 0.110911 0.005533 0.720007 -3.635952 -10.624441 -0.704981 3.858997 -10.638640 -16.946028 -3.683631 11.753617 -59.111187 -9.296991 23.694649 -0.023027 -21.152256 -0.026246 -0.112254 1.382427 -6.087570 -5.882102 9.861279 0.702591 -10.936858 -0.360575 7.156198 0.000000 8.774813 0.000000 -15.993586 18.230730 6.214495 -1.844031 2.498502 -2.507275 -10.163589 4.678941 4.621105 -20.975994 -0.000002 0.000001 -21.226250 2.451693 -3.593992 0.000000 -0.000005 0.000001 -1.362680 2.240797 -0.746322 -21.334892 0.584909 3.008319 -13.821195 -0.000001 0.000003 -23.887129 -0.249077 -0.839482 -60.409790 2.690319 -1.136768 -0.294024 1.679686 0.833255 -14.218190 0.093214 1.300581 -34.211998 -0.287561 0.967169 -20.033175 0.964536 1.212842 0.000000 0.000000 0.000000 -3.440385 0.788233 0.501655 -15.928167 -3.167306 2.999706 -6.338816 -0.000001 0.000000 -18.123413 3.648178 -4.905659 -0.000004 0.000000 -0.000001 13.793448 12.112617 12.324284 62.551861 6.696109 14.795452 0.073518 25.317503 0.088412 0.192497 1.179290 4.316535 2.243540 -5.255033 -3.180157 14.282875 -0.826594 6.952497 -0.000003 -12.690590 0.000000 16.040979 -17.888624 2.545467 1.665664 -1.955919 -2.878294 4.727794 -4.170583 4.993918 11.020512 0.000004 -0.000001 12.109030 -3.735709 -2.866779 0.000000 0.000000 0.000001 1.291984 -1.928546 -1.498089 14.800109 0.567469 3.865600 14.242553 -1.341734 -6.660648 19.631939 0.143925 -0.648243 49.532051 -0.855532 -6.601901 0.353029 -1.511148 -0.031939 20.222771 3.684307 2.316627 18.787245 0.000008 -0.000001 10.751611 -0.479867 1.397900 0.000002 0.000003 -0.000003 3.273804 0.305947 -0.580111 21.486790 11.830364 2.266129 8.162918 0.000003 -0.000001 18.399052 -3.798980 -4.940566 0.000004 -0.000000 -0.000001 3.290184 6.272757 1.369935 0.005170 -0.279139 7.847054 -6.567235 0.792936 -6.864846 1.637379 -1.997849 -0.163333 0.000000 0.000000 0.000002 -5.128489 -6.394304 1.178771 -0.023418 0.098102 8.541656 7.042054 -0.375549 -7.097217 -1.404432 0.911682 0.485616 -0.000000 -0.000000 -0.000001 
1.381724 99.803429 6.089081 0.435809 0.569213 -2.245503 0.066282 0.017005 -1.836362 -0.197370 -0.224360 -5.435953 1.933189 -1.802192 7.350949 -2.579671 4.037115 5.891850 0.174073 3.040684 -3.613240 1.326731 2.237655 -4.170528 0.000077 -0.000023 0.000006 0.011022 0.108915 0.009956 0.717590 -3.636172 -10.617426 -0.703558 3.856243 -10.634954 -16.913130 -3.724987 11.720812 -59.082829 -9.223568 23.780500 -0.023343 -21.093462 -0.008018 -0.176088 1.408334 -6.040650 -5.882102 9.861279 0.702590 -10.936859 -0.360575 7.156197 0.000001 8.774813 -0.000001 -16.006300 18.236214 6.224545 -1.844031 2.498502 -2.507276 -10.163589 4.678940 4.621106 -20.975994 -0.000004 0.000002 -21.226250 2.451692 -3.593993 0.000000 -0.000005 0.000001 -1.362680 2.240796 -0.746322 -21.334887 0.584908 3.008320 -13.821197 -0.000003 0.000000 -23.887133 -0.249078 -0.839481 -60.428513 2.660574 -1.080625 -0.294025 1.679686 0.833255 -14.218194 0.093214 1.300577 -34.211998 -0.287562 0.967170 -20.033178 0.964537 1.212841 0.000001 -0.000002 -0.000001 -3.440385 0.788233 0.501656 -15.928169 -3.167308 2.999706 -6.338817 -0.000002 0.000001 -18.123411 3.648175 -4.905661 -0.000004 -0.000000 -0.000002 13.833601 12.061222 12.326459 62.463150 6.686010 14.897886 0.040959 25.184813 0.053682 0.194496 1.202748 4.225762 2.243540 -5.255033 -3.180155 14.282877 -0.826593 6.952497 -0.000002 -12.690592 0.000000 16.028919 -17.895672 2.541486 1.665664 -1.955919 -2.878295 4.727794 -4.170583 4.993919 11.020512 0.000004 -0.000001 12.109033 -3.735711 -2.866779 -0.000001 0.000000 -0.000001 1.291984 -1.928548 -1.498089 14.800113 0.567466 3.865602 14.242553 -1.341735 -6.660648 19.631937 0.143924 -0.648243 49.533752 -0.869806 -6.580199 0.353029 -1.511149 -0.031940 20.222771 3.684306 2.316629 18.787245 0.000005 -0.000001 10.751612 -0.479868 1.397902 0.000001 0.000002 -0.000002 3.273805 0.305946 -0.580110 21.486794 11.830363 2.266130 8.162916 0.000001 -0.000002 18.399054 -3.798977 -4.940568 0.000003 0.000001 0.000001 3.275073 6.234635 1.168967 0.003117 -0.279460 8.239080 -6.606573 0.789348 -6.989547 1.635493 -2.011783 -0.118335 0.000000 -0.000000 0.000002 -5.138912 -6.402600 1.003950 -0.030787 0.087710 8.932591 7.055362 -0.356144 -7.244527 -1.402933 0.911214 0.497835 -0.000000 -0.000000 -0.000001 
